Coordinates
version=1
nRows=17
nColumns=24
inDegrees=yes

Units are S.I. units (second, meters, Newtons, ...)
Angles are in degrees.

endheader
time	pelvis_tilt	pelvis_list	pelvis_rotation	pelvis_tx	pelvis_ty	pelvis_tz	hip_flexion_r	hip_adduction_r	hip_rotation_r	knee_angle_r	ankle_angle_r	subtalar_angle_r	mtp_angle_r	hip_flexion_l	hip_adduction_l	hip_rotation_l	knee_angle_l	ankle_angle_l	subtalar_angle_l	mtp_angle_l	lumbar_extension	lumbar_bending	lumbar_rotation
      5.80500000	     28.90560872	      8.63060911	      9.34491225	      0.86811430	      0.65683281	     -0.29002593	    -10.55909064	     -5.45426415	    -22.33270238	      0.35161963	     11.85169929	      5.90606078	      0.00000000	    -40.06625776	      0.52267921	      1.17109997	    -24.65728768	     21.09868271	     18.97928154	      0.00000000	    -57.96244525	      1.90752030	     -7.20074863
      5.81000000	     29.13245336	      8.51494933	      9.56101647	      0.87398718	      0.65682223	     -0.29006815	    -10.64845758	     -5.32310317	    -21.99556248	     -0.78949104	     11.31790762	      5.40947663	      0.00000000	    -40.09783215	      0.04675721	      1.21820068	    -25.99824668	     20.35381357	     19.35816356	      0.00000000	    -58.10895098	      2.29793719	     -7.07724160
      5.81500000	     29.34928647	      8.37104050	      9.74823500	      0.87983313	      0.65686260	     -0.29005850	    -10.69133479	     -5.17000496	    -21.57643296	     -2.03113302	     10.74170143	      4.88482975	      0.00000000	    -40.04884021	     -0.43331202	      1.19403284	    -27.43073764	     19.48250080	     19.71752515	      0.00000000	    -58.25851561	      2.67491038	     -6.91391718
      5.82000000	     29.54338050	      8.20011607	      9.89183646	      0.88567102	      0.65693630	     -0.28998550	    -10.67500027	     -4.99781157	    -21.06695871	     -3.35260257	     10.14574036	      4.32326708	      0.00000000	    -39.91592692	     -0.90364448	      1.08461939	    -28.93626406	     18.48810795	     20.03890691	      0.00000000	    -58.38627867	      3.02837929	     -6.71502438
      5.82500000	     29.70052135	      7.99921212	      9.96922884	      0.89149670	      0.65702332	     -0.28984378	    -10.58362800	     -4.80984942	    -20.45458394	     -4.73535516	      9.55042286	      3.75443772	      0.00000000	    -39.68157680	     -1.34459723	      0.88171324	    -30.52011355	     17.36889174	     20.29840930	      0.00000000	    -58.48385320	      3.33802363	     -6.47273468
      5.83000000	     29.77860665	      7.76714036	      9.91805667	      0.89723936	      0.65707497	     -0.28955155	    -10.33519807	     -4.63174942	    -19.66479952	     -6.20387522	      8.97624966	      3.25344378	      0.00000000	    -39.29276598	     -1.71221517	      0.52622122	    -32.18890000	     16.13474433	     20.47947720	      0.00000000	    -58.53326326	      3.55386948	     -6.16396106
      5.83500000	     29.85511674	      7.54613907	      9.90144682	      0.90303553	      0.65718857	     -0.28921823	    -10.13122527	     -4.43050598	    -18.96768220	     -7.63000795	      8.47198587	      2.77106597	      0.00000000	    -38.85315905	     -2.10506925	      0.16373093	    -33.90111773	     14.73873254	     20.58674541	      0.00000000	    -58.56919210	      3.75893702	     -5.85464686
      5.84000000	     30.00331682	      7.31673805	      9.97981365	      0.90888873	      0.65740929	     -0.28892780	    -10.09472439	     -4.15582836	    -18.41457823	     -8.94117828	      8.01670372	      2.33048203	      0.00000000	    -38.44017450	     -2.57649292	     -0.12103188	    -35.64649911	     13.22590577	     20.45820274	      0.00000000	    -58.65695610	      4.04921767	     -5.58550065
      5.84500000	     30.04815233	      7.07561118	      9.92209412	      0.91467376	      0.65756613	     -0.28848458	     -9.89983479	     -3.90876997	    -17.69353161	    -10.28403301	      7.63349806	      1.87337858	      0.00000000	    -37.86435232	     -2.95581250	     -0.57072648	    -37.43606004	     11.63833263	     20.22912096	      0.00000000	    -58.66341527	      4.21726814	     -5.27819477
      5.85000000	     29.98533370	      6.82397066	      9.75623274	      0.92046592	      0.65766407	     -0.28788920	     -9.58068085	     -3.68163071	    -16.90778728	    -11.60989356	      7.40187229	      1.57841693	      0.00000000	    -37.13469301	     -3.26921619	     -1.13516872	    -39.24923927	      9.96235883	     19.97409341	      0.00000000	    -58.56520037	      4.27245443	     -4.93018957
      5.85500000	     30.01490753	      6.58465830	      9.70508843	      0.92626558	      0.65787528	     -0.28734202	     -9.47689348	     -3.39520313	    -16.33082264	    -12.77195520	      7.24269479	      1.27932862	      0.00000000	    -36.45895605	     -3.66290121	     -1.61272445	    -41.06247473	      8.25171762	     19.39179154	      0.00000000	    -58.54794388	      4.41840157	     -4.65619535
      5.86000000	     30.13397593	      6.32464263	      9.73007499	      0.93207014	      0.65817894	     -0.28688614	     -9.57573920	     -3.03956439	    -15.91717401	    -13.76023962	      7.16188764	      1.10559836	      0.00000000	    -35.84336929	     -4.12642167	     -2.02525341	    -42.86494538	      6.58049826	     18.56020877	      0.00000000	    -58.60330818	      4.65845761	     -4.40087983
      5.86500000	     30.17549879	      6.08010398	      9.70635794	      0.93783985	      0.65846143	     -0.28630307	     -9.61427640	     -2.70672822	    -15.49157307	    -14.69018477	      7.19907109	      0.90838188	      0.00000000	    -35.11133522	     -4.54410627	     -2.50169945	    -44.65153146	      4.90302080	     17.55144905	      0.00000000	    -58.59149472	      4.81290675	     -4.14493021
      5.87000000	     30.20723955	      5.82768785	      9.67738337	      0.94358268	      0.65876345	     -0.28572886	     -9.70315641	     -2.36016938	    -15.14734079	    -15.49914407	      7.33510298	      0.75470713	      0.00000000	    -34.34259040	     -4.95610448	     -2.98502372	    -46.41251676	      3.31062766	     16.33838933	      0.00000000	    -58.57017740	      4.97149882	     -3.88558404
      5.87500000	     30.24436586	      5.57149427	      9.66714446	      0.94932214	      0.65910911	     -0.28513733	     -9.86642501	     -1.99200498	    -14.89260947	    -16.18892213	      7.55543258	      0.64098708	      0.00000000	    -33.56392859	     -5.38361688	     -3.45370014	    -48.11759434	      1.82166521	     14.94047859	      0.00000000	    -58.54511168	      5.12927087	     -3.62801732
      5.88000000	     30.15283353	      5.34234087	      9.60429860	      0.95505182	      0.65940342	     -0.28448710	     -9.92393908	     -1.68171915	    -14.63727046	    -16.81250140	      7.95652747	      0.55881404	      0.00000000	    -32.63027966	     -5.71703863	     -3.92480072	    -49.78149848	      0.42013369	     13.35427069	      0.00000000	    -58.38998862	      5.20064040	     -3.39686371
      5.88500000	     30.27128808	      5.03447959	      9.64935286	      0.96078954	      0.65988391	     -0.28396801	    -10.34112560	     -1.20750789	    -14.57583605	    -17.18509399	      8.26372774	      0.49722302	      0.00000000	    -31.92508527	     -6.22117584	     -4.35265698	    -51.35032801	     -0.70531906	     11.67906079	      0.00000000	    -58.42600218	      5.45879338	     -3.08709899
